<?xml version="1.0" encoding="utf-8"?>
<!-- Generator: Adobe Illustrator 23.0.2, SVG Export Plug-In . SVG Version: 6.00 Build 0)  -->
<svg version="1.1" id="Layer_1" xmlns="http://www.w3.org/2000/svg" xmlns:xlink="http://www.w3.org/1999/xlink" x="0px" y="0px"
	 viewBox="0 0 1080 249" style="enable-background:new 0 0 1080 249;" xml:space="preserve">
<style type="text/css">
	.st0{fill:#C92538;}
	.st1{fill:#4AAAD6;}
	.st2{fill:#343840;}
</style>
	<g>
	<path class="st0" d="M121.98,121.66l81.12,79.53c1.53,1.5,4.12,0.44,4.15-1.7l2.53-154.31c0.03-2.13-2.48-3.28-4.07-1.86
		l-83.65,74.78C121.01,119.04,120.97,120.68,121.98,121.66z"/>
		<path class="st1" d="M35.8,163.15V74.41c0-2.22,2.73-3.29,4.24-1.66l42.13,45.71c0.88,0.96,0.86,2.43-0.05,3.36l-42.13,43.02
		C38.45,166.42,35.8,165.34,35.8,163.15z"/>
		<path class="st2" d="M50.57,183.45l47.68-44.91c0.99-0.93,2.55-0.88,3.47,0.13l69.22,75.37c1.65,1.79-0.06,4.63-2.41,4.02
		l-116.9-30.46C49.77,187.11,49.17,184.76,50.57,183.45z"/>
		<path class="st2" d="M103.79,99.74l70.13-71.98c1.69-1.74,0.09-4.61-2.27-4.09L53.84,49.51c-1.9,0.42-2.58,2.79-1.18,4.14
		l47.68,46.14C101.31,100.72,102.86,100.7,103.79,99.74z"/>
		<g>
		<path d="M248.21,139.77V53.71h16.66v2.78l8.33,33.31l8.33-33.31v-2.78h16.66v86.06h-11.1V78.69l-8.33,33.31h-11.1l-8.33-33.31
			v61.08H248.21z"/>
			<path d="M318.01,139.77l-5.55-1.39l-2.78-1.39l-2.78-2.78l-1.39-2.78l-1.39-5.55v-58.3l1.39-5.55l1.39-2.78l2.78-2.78l2.78-1.39
			l5.55-1.39h16.66l5.55,1.39l2.78,1.39l2.78,2.78l1.39,2.78l1.39,5.55v11.1h-11.1v-8.33c0-1.5-0.58-2.78-1.73-3.82
			c-1.04-1.15-2.32-1.73-3.82-1.73h-11.1c-1.62,0-2.95,0.58-3.99,1.73c-1.04,1.04-1.56,2.32-1.56,3.82v52.75
			c0,1.62,0.52,2.95,1.56,3.99s2.37,1.56,3.99,1.56h5.55l11.1-5.55v-19.43h-11.1v-11.1h22.21v47.19h-8.33l-2.26-4.34l-8.85,4.34
			H318.01z"/>
			<path d="M368.37,139.77l-5.55-1.39l-2.78-1.39l-2.78-2.78l-1.39-2.78l-1.39-5.55v-11.1h11.1v8.33c0,1.62,0.52,2.95,1.56,3.99
			s2.37,1.56,3.99,1.56h11.1c1.5,0,2.78-0.52,3.82-1.56c1.15-1.04,1.73-2.37,1.73-3.99v-16.66c0-1.5-0.58-2.78-1.73-3.82
			c-1.04-1.15-2.32-1.74-3.82-1.74h-13.88l-5.55-1.39l-2.78-1.39l-2.78-2.78l-1.39-2.78l-1.39-5.55V67.59l1.39-5.55l1.39-2.78
			l2.78-2.78l2.78-1.39l5.55-1.39h16.66l5.55,1.39l2.78,1.39l2.78,2.78l1.39,2.78l1.39,5.55v11.1h-11.1v-8.33
			c0-1.5-0.58-2.78-1.73-3.82c-1.04-1.15-2.32-1.73-3.82-1.73h-11.1c-1.62,0-2.95,0.58-3.99,1.73c-1.04,1.04-1.56,2.32-1.56,3.82
			v13.88c0,1.62,0.52,2.95,1.56,3.99s2.37,1.56,3.99,1.56h13.88l5.55,1.39l2.78,1.39l2.78,2.78l1.39,2.78l1.39,5.55v22.21
			l-1.39,5.55l-1.39,2.78l-2.78,2.78l-2.78,1.39l-5.55,1.39H368.37z"/>
			<path d="M418.73,139.77l-5.55-1.39l-2.78-1.39l-2.78-2.78l-1.39-2.78l-1.39-5.55v-58.3l1.39-5.55l1.39-2.78l2.78-2.78l2.78-1.39
			l5.55-1.39h16.66l5.55,1.39l2.78,1.39l2.78,2.78l1.39,2.78l1.39,5.55v11.1h-11.1v-8.33c0-1.5-0.58-2.78-1.73-3.82
			c-1.04-1.15-2.32-1.73-3.82-1.73h-11.1c-1.62,0-2.95,0.58-3.99,1.73c-1.04,1.04-1.56,2.32-1.56,3.82v52.75
			c0,1.62,0.52,2.95,1.56,3.99s2.37,1.56,3.99,1.56h5.55l11.1-5.55v-19.43h-11.1v-11.1h22.21v47.19h-8.33l-2.26-4.34l-8.85,4.34
			H418.73z"/>
			<path d="M490.29,139.77l-5.55-1.39l-2.78-1.39l-2.78-2.78l-1.39-2.78l-1.39-5.55v-58.3l1.39-5.55l1.39-2.78l2.78-2.78l2.78-1.39
			l5.55-1.39h16.66l5.55,1.39l2.78,1.39l2.78,2.78l1.39,2.78l1.39,5.55v11.1h-11.1v-8.33c0-1.5-0.58-2.78-1.73-3.82
			c-1.04-1.15-2.32-1.73-3.82-1.73h-11.1c-1.62,0-2.95,0.58-3.99,1.73c-1.04,1.04-1.56,2.32-1.56,3.82v52.75
			c0,1.62,0.52,2.95,1.56,3.99s2.37,1.56,3.99,1.56h11.1c1.5,0,2.78-0.52,3.82-1.56c1.15-1.04,1.73-2.37,1.73-3.99v-8.33h11.1v11.1
			l-1.39,5.55l-1.39,2.78l-2.78,2.78l-2.78,1.39l-5.55,1.39H490.29z"/>
			<path d="M540.65,139.77l-5.55-1.39l-2.78-1.39l-2.78-2.78l-1.39-2.78l-1.39-5.55v-58.3l1.39-5.55l1.39-2.78l2.78-2.78l2.78-1.39
			l5.55-1.39h16.66l5.55,1.39l2.78,1.39l2.78,2.78l1.39,2.78l1.39,5.55v58.3l-1.39,5.55l-1.39,2.78l-2.78,2.78l-2.78,1.39
			l-5.55,1.39H540.65z M554.53,128.66c1.5,0,2.78-0.52,3.82-1.56c1.15-1.04,1.73-2.37,1.73-3.99V70.36c0-1.5-0.58-2.78-1.73-3.82
			c-1.04-1.15-2.32-1.73-3.82-1.73h-11.1c-1.62,0-2.95,0.58-3.99,1.73c-1.04,1.04-1.56,2.32-1.56,3.82v52.75
			c0,1.62,0.52,2.95,1.56,3.99s2.37,1.56,3.99,1.56H554.53z"/>
			<path d="M577.13,139.77V53.71h16.66v2.78l6.94,27.76h-0.69l7.63,30.54V53.71h11.11v86.06h-16.66v-2.78l-8.33-33.31v-2.78
			l-5.55-22.21v61.08H577.13z"/>
			<path d="M638.6,139.77l-5.55-1.39l-2.78-1.39l-2.78-2.78l-1.39-2.78l-1.39-5.55v-11.1h11.1v8.33c0,1.62,0.52,2.95,1.56,3.99
			s2.37,1.56,3.99,1.56h11.1c1.5,0,2.78-0.52,3.82-1.56c1.16-1.04,1.74-2.37,1.74-3.99v-16.66c0-1.5-0.58-2.78-1.74-3.82
			c-1.04-1.15-2.31-1.74-3.82-1.74H638.6l-5.55-1.39l-2.78-1.39l-2.78-2.78l-1.39-2.78l-1.39-5.55V67.59l1.39-5.55l1.39-2.78
			l2.78-2.78l2.78-1.39l5.55-1.39h16.66l5.55,1.39l2.78,1.39l2.78,2.78l1.39,2.78l1.39,5.55v11.1h-11.1v-8.33
			c0-1.5-0.58-2.78-1.74-3.82c-1.04-1.15-2.31-1.73-3.82-1.73h-11.1c-1.62,0-2.95,0.58-3.99,1.73c-1.04,1.04-1.56,2.32-1.56,3.82
			v13.88c0,1.62,0.52,2.95,1.56,3.99s2.37,1.56,3.99,1.56h13.88l5.55,1.39l2.78,1.39l2.78,2.78l1.39,2.78l1.39,5.55v22.21
			l-1.39,5.55l-1.39,2.78l-2.78,2.78l-2.78,1.39l-5.55,1.39H638.6z"/>
			<path d="M691.73,139.77V64.81h-16.66v-11.1h44.42v11.1h-16.66v74.96H691.73z"/>
			<path d="M725.43,139.77V53.71h30.54l5.55,1.39l2.78,1.39l2.78,2.78l1.39,2.78l1.39,5.55v19.43l-1.39,5.55h-1.39v2.78l1.39,2.78
			l1.39,5.55v36.09h-11.1v-33.31c0-1.5-0.58-2.78-1.74-3.82c-1.04-1.15-2.31-1.74-3.82-1.74h-16.66v38.87H725.43z M753.2,89.8
			c1.5,0,2.78-0.52,3.82-1.56c1.16-1.04,1.74-2.37,1.74-3.99V70.36c0-1.5-0.58-2.78-1.74-3.82c-1.04-1.15-2.31-1.73-3.82-1.73
			h-16.66V89.8H753.2z"/>
			<path d="M789.67,139.77l-5.55-1.39l-2.78-1.39l-2.78-2.78l-1.39-2.78l-1.39-5.55V53.71h11.1v69.4c0,1.62,0.52,2.95,1.56,3.99
			s2.37,1.56,3.99,1.56h11.1c1.5,0,2.78-0.52,3.82-1.56c1.16-1.04,1.74-2.37,1.74-3.99v-69.4h11.1v72.18l-1.39,5.55l-1.39,2.78
			l-2.78,2.78l-2.78,1.39l-5.55,1.39H789.67z"/>
			<path d="M840.03,139.77l-5.55-1.39l-2.78-1.39l-2.78-2.78l-1.39-2.78l-1.39-5.55v-58.3l1.39-5.55l1.39-2.78l2.78-2.78l2.78-1.39
			l5.55-1.39h16.66l5.55,1.39l2.78,1.39l2.78,2.78l1.39,2.78l1.39,5.55v11.1h-11.1v-8.33c0-1.5-0.58-2.78-1.74-3.82
			c-1.04-1.15-2.31-1.73-3.82-1.73h-11.1c-1.62,0-2.95,0.58-3.99,1.73c-1.04,1.04-1.56,2.32-1.56,3.82v52.75
			c0,1.62,0.52,2.95,1.56,3.99s2.37,1.56,3.99,1.56h11.1c1.5,0,2.78-0.52,3.82-1.56c1.16-1.04,1.74-2.37,1.74-3.99v-8.33h11.1v11.1
			l-1.39,5.55l-1.39,2.78l-2.78,2.78l-2.78,1.39l-5.55,1.39H840.03z"/>
			<path d="M893.17,139.77V64.81h-16.66v-11.1h44.42v11.1h-16.66v74.96H893.17z"/>
			<path d="M926.87,139.77V53.71h11.1v86.06H926.87z"/>
			<path d="M957.8,139.77l-5.55-1.39l-2.78-1.39l-2.78-2.78l-1.39-2.78l-1.39-5.55v-58.3l1.39-5.55l1.39-2.78l2.78-2.78l2.78-1.39
			l5.55-1.39h16.66l5.55,1.39l2.78,1.39l2.78,2.78l1.39,2.78l1.39,5.55v58.3l-1.39,5.55l-1.39,2.78l-2.78,2.78l-2.78,1.39
			l-5.55,1.39H957.8z M971.68,128.66c1.5,0,2.78-0.52,3.82-1.56c1.16-1.04,1.74-2.37,1.74-3.99V70.36c0-1.5-0.58-2.78-1.74-3.82
			c-1.04-1.15-2.31-1.73-3.82-1.73h-11.1c-1.62,0-2.95,0.58-3.99,1.73c-1.04,1.04-1.56,2.32-1.56,3.82v52.75
			c0,1.62,0.52,2.95,1.56,3.99s2.37,1.56,3.99,1.56H971.68z"/>
			<path d="M994.27,139.77V53.71h16.66v2.78l6.94,27.76h-0.69l7.63,30.54V53.71h11.11v86.06h-16.66v-2.78l-8.33-33.31v-2.78
			l-5.55-22.21v61.08H994.27z"/>
	</g>
		<g>
		<path d="M251.28,158.67c1.86-0.37,5.58-0.7,9.16-0.7c4.33,0,6.98,0.42,9.26,1.77c2.19,1.16,3.72,3.3,3.72,6.19
			c0,2.74-1.63,5.3-5.12,6.65v0.09c3.58,0.93,6.23,3.67,6.23,7.72c0,2.88-1.3,5.12-3.26,6.65c-2.28,1.81-6.09,2.84-12.32,2.84
			c-3.49,0-6.09-0.23-7.67-0.46V158.67z M258.31,170.62h2.33c3.77,0,5.72-1.54,5.72-3.86c0-2.37-1.81-3.63-5.02-3.63
			c-1.58,0-2.46,0.09-3.02,0.23V170.62z M258.31,184.53c0.7,0.14,1.53,0.14,2.74,0.14c3.21,0,6.05-1.25,6.05-4.56
			c0-3.16-2.84-4.42-6.37-4.42h-2.42V184.53z"/>
			<path d="M298.58,158.2v12.09h11.67V158.2h7.07v31.35h-7.07v-13.07h-11.67v13.07h-7.07V158.2H298.58z"/>
			<path d="M342.86,181.5l-2.19,8.05h-7.35l9.58-31.35h9.25l9.77,31.35h-7.63l-2.42-8.05H342.86z M350.81,176.2l-1.95-6.65
			c-0.51-1.86-1.07-4.23-1.54-6.05h-0.14c-0.42,1.86-0.93,4.23-1.4,6.05l-1.91,6.65H350.81z"/>
			<path d="M378.2,158.67c2.28-0.42,5.63-0.7,9.44-0.7c4.65,0,7.91,0.7,10.14,2.51c1.91,1.49,2.93,3.67,2.93,6.56
			c0,3.95-2.84,6.7-5.53,7.67v0.14c2.19,0.88,3.4,2.93,4.19,5.81c0.98,3.58,1.91,7.67,2.51,8.88h-7.26
			c-0.47-0.93-1.26-3.44-2.14-7.3c-0.88-3.95-2.23-4.98-5.16-5.02h-2.09v12.33h-7.02V158.67z M385.23,172.11h2.79
			c3.53,0,5.63-1.77,5.63-4.51c0-2.84-1.95-4.33-5.21-4.33c-1.72,0-2.7,0.09-3.21,0.23V172.11z"/>
			<path d="M425.55,181.5l-2.19,8.05h-7.35l9.58-31.35h9.26l9.77,31.35h-7.63l-2.42-8.05H425.55z M433.5,176.2l-1.95-6.65
			c-0.51-1.86-1.07-4.23-1.53-6.05h-0.14c-0.42,1.86-0.93,4.23-1.4,6.05l-1.91,6.65H433.5z"/>
			<path d="M463.12,164.16h-8.46v-5.95h24.09v5.95h-8.56v25.39h-7.07V164.16z"/>
			<path d="M516.1,158.62c2.19-0.37,5.26-0.65,9.58-0.65c4.37,0,7.49,0.84,9.58,2.56c2.05,1.54,3.35,4.14,3.35,7.21
			c0,3.12-0.98,5.72-2.88,7.44c-2.42,2.23-6,3.3-10.19,3.3c-0.93,0-1.77-0.05-2.42-0.19v11.25h-7.02V158.62z M523.12,172.85
			c0.6,0.14,1.3,0.19,2.37,0.19c3.77,0,6.09-1.91,6.09-5.07c0-2.88-2-4.6-5.58-4.6c-1.4,0-2.37,0.09-2.88,0.23V172.85z"/>
			<path d="M555.21,158.67c2.28-0.42,5.63-0.7,9.44-0.7c4.65,0,7.91,0.7,10.14,2.51c1.91,1.49,2.93,3.67,2.93,6.56
			c0,3.95-2.84,6.7-5.53,7.67v0.14c2.19,0.88,3.39,2.93,4.19,5.81c0.98,3.58,1.91,7.67,2.51,8.88h-7.25
			c-0.46-0.93-1.26-3.44-2.14-7.3c-0.88-3.95-2.23-4.98-5.16-5.02h-2.09v12.33h-7.02V158.67z M562.23,172.11h2.79
			c3.53,0,5.63-1.77,5.63-4.51c0-2.84-1.95-4.33-5.21-4.33c-1.72,0-2.7,0.09-3.21,0.23V172.11z"/>
			<path d="M602,158.2v31.35h-7.07V158.2H602z"/>
			<path d="M627.62,189.55l-10.05-31.35h7.77l3.81,13.25c1.07,3.77,2.05,7.3,2.79,11.21h0.14c0.79-3.77,1.77-7.49,2.84-11.07l4-13.39
			h7.54l-10.56,31.35H627.62z"/>
			<path d="M666.64,181.5l-2.19,8.05h-7.35l9.58-31.35h9.26l9.77,31.35h-7.63l-2.42-8.05H666.64z M674.59,176.2l-1.95-6.65
			c-0.51-1.86-1.07-4.23-1.53-6.05h-0.14c-0.42,1.86-0.93,4.23-1.4,6.05l-1.91,6.65H674.59z"/>
			<path d="M704.22,164.16h-8.46v-5.95h24.09v5.95h-8.56v25.39h-7.07V164.16z"/>
			<path d="M754.35,176.3h-11.53v7.44h12.88v5.81h-19.95V158.2h19.3v5.81h-12.23v6.51h11.53V176.3z"/>
			<path d="M794.16,158.2h7.07v25.39h12.46v5.95h-19.53V158.2z"/>
			<path d="M837.09,158.2v31.35h-7.07V158.2H837.09z"/>
			<path d="M881.83,177.55c-0.14-3.77-0.28-8.28-0.28-12.88h-0.09c-1.02,4-2.33,8.46-3.54,12.14l-3.81,12.23h-5.54l-3.35-12.14
			c-1.02-3.67-2.05-8.09-2.84-12.23h-0.09c-0.14,4.23-0.33,9.07-0.51,12.98l-0.6,11.91h-6.56l2-31.35h9.44l3.07,10.46
			c1.02,3.63,1.95,7.54,2.65,11.21h0.19c0.84-3.63,1.91-7.77,2.98-11.25l3.3-10.42h9.3l1.67,31.35h-6.88L881.83,177.55z"/>
			<path d="M913.87,158.2v31.35h-7.07V158.2H913.87z"/>
			<path d="M938.2,164.16h-8.46v-5.95h24.09v5.95h-8.56v25.39h-7.07V164.16z"/>
			<path d="M988.33,176.3H976.8v7.44h12.88v5.81h-19.95V158.2h19.3v5.81H976.8v6.51h11.53V176.3z"/>
			<path d="M1006.61,158.67c2.6-0.46,6-0.7,9.53-0.7c6,0,9.91,1.12,12.88,3.35c3.26,2.42,5.3,6.23,5.3,11.81
			c0,6-2.19,10.14-5.16,12.7c-3.3,2.74-8.37,4.05-14.51,4.05c-3.67,0-6.33-0.23-8.05-0.46V158.67z M1013.68,184.2
			c0.6,0.14,1.63,0.14,2.46,0.14c6.46,0.05,10.7-3.49,10.7-10.98c0-6.51-3.81-9.95-9.95-9.95c-1.53,0-2.6,0.14-3.21,0.28V184.2z"/>
	</g>
</g>
</svg>
